<svg width="24" height="24" viewBox="0 0 24 24" fill="none"
  xmlns="http://www.w3.org/2000/svg">
  <path fill-rule="evenodd" clip-rule="evenodd" d="M6.20228 17.8269C5.94441 17.5852 5.93136 17.1802 6.1731 16.9224L10.5628 12.2406L6.1731 7.55888C5.93136 7.30098 5.94441 6.89604 6.20228 6.65427C6.46015 6.41263 6.86517 6.42569 7.10692 6.68345L11.907 11.8029C12.1378 12.0491 12.1378 12.4321 11.907 12.6783L7.10692 17.7977C6.86517 18.0556 6.46015 18.0686 6.20228 17.8269Z" fill="#0C0829"/>
  <path fill-rule="evenodd" clip-rule="evenodd" d="M16.8758 17.8269C17.1337 17.5852 17.1468 17.1802 16.905 16.9224L12.5154 12.2406L16.905 7.55888C17.1468 7.30098 17.1337 6.89604 16.8758 6.65427C16.618 6.41263 16.213 6.42569 15.9712 6.68345L11.1711 11.8029C10.9404 12.0491 10.9404 12.4321 11.1711 12.6783L15.9712 17.7977C16.213 18.0556 16.618 18.0686 16.8758 17.8269Z" fill="#0C0829"/>
</svg>
